<svg viewBox="0 0 200 200" xmlns="http://www.w3.org/2000/svg">
  <!-- Head -->
  <ellipse cx="100" cy="85" rx="55" ry="60" fill="#9c27b0" stroke="#7b1fa2" stroke-width="3"/>

  <!-- Snout -->
  <ellipse cx="100" cy="130" rx="30" ry="25" fill="#9c27b0" stroke="#7b1fa2" stroke-width="3"/>

  <!-- Horn -->
  <polygon points="100,30 90,10 110,10" fill="#b366cc" stroke="#7b1fa2" stroke-width="2"/>

  <!-- Left eye -->
  <circle cx="75" cy="75" r="8" fill="black"/>
  <circle cx="77" cy="73" r="3" fill="white"/>

  <!-- Right eye -->
  <circle cx="125" cy="75" r="8" fill="black"/>
  <circle cx="127" cy="73" r="3" fill="white"/>

  <!-- Nostrils -->
  <circle cx="90" cy="130" r="4" fill="black"/>
  <circle cx="110" cy="130" r="4" fill="black"/>

  <!-- Teeth -->
  <line x1="80" y1="145" x2="120" y2="145" stroke="white" stroke-width="2"/>
  <line x1="85" y1="145" x2="85" y2="150" stroke="black" stroke-width="1"/>
  <line x1="95" y1="145" x2="95" y2="150" stroke="black" stroke-width="1"/>
  <line x1="105" y1="145" x2="105" y2="150" stroke="black" stroke-width="1"/>
  <line x1="115" y1="145" x2="115" y2="150" stroke="black" stroke-width="1"/>

  <!-- Body -->
  <ellipse cx="100" cy="165" rx="45" ry="25" fill="#9c27b0" stroke="#7b1fa2" stroke-width="3"/>

  <!-- Spikes on back -->
  <polygon points="70,155 65,140 75,150" fill="#b366cc" stroke="#7b1fa2" stroke-width="1"/>
  <polygon points="100,150 95,130 105,145" fill="#b366cc" stroke="#7b1fa2" stroke-width="1"/>
  <polygon points="130,155 135,140 125,150" fill="#b366cc" stroke="#7b1fa2" stroke-width="1"/>
</svg>
